<?xml version="1.0" encoding="UTF-8" standalone="no"?>
<svg
   width="28"
   height="28"
   viewBox="0 0 28 28"
   version="1.1"
   id="svg5"
   sodipodi:docname="ic_fluent_refresh_28_color.svg"
   inkscape:version="1.3 (0e150ed6c4, 2023-07-21)"
   xmlns:inkscape="http://www.inkscape.org/namespaces/inkscape"
   xmlns:sodipodi="http://sodipodi.sourceforge.net/DTD/sodipodi-0.dtd"
   xmlns:xlink="http://www.w3.org/1999/xlink"
   xmlns="http://www.w3.org/2000/svg"
   xmlns:svg="http://www.w3.org/2000/svg">
  <sodipodi:namedview
     id="namedview5"
     pagecolor="#505050"
     bordercolor="#ffffff"
     borderopacity="1"
     inkscape:showpageshadow="0"
     inkscape:pageopacity="0"
     inkscape:pagecheckerboard="1"
     inkscape:deskcolor="#505050"
     inkscape:zoom="27.535714"
     inkscape:cx="13.981842"
     inkscape:cy="14"
     inkscape:window-width="1920"
     inkscape:window-height="1009"
     inkscape:window-x="-8"
     inkscape:window-y="-8"
     inkscape:window-maximized="1"
     inkscape:current-layer="svg5" />
  <defs
     id="defs4">
    <linearGradient
       id="linearGradient6"
       x1="15"
       y1="4"
       x2="24"
       y2="13"
       gradientUnits="userSpaceOnUse">
      <stop
         offset="0"
         stop-color="#34D399"
         id="stop5"
         style="stop-color:#3acbe3;stop-opacity:1;" />
      <stop
         offset="1"
         stop-color="#16A34A"
         id="stop6"
         style="stop-color:#1263b5;stop-opacity:1;" />
    </linearGradient>
    <linearGradient
       id="refreshGradient"
       x1="5"
       y1="5"
       x2="23"
       y2="23"
       gradientUnits="userSpaceOnUse">
      <stop
         offset="0"
         stop-color="#60A5FA"
         id="stop1" />
      <stop
         offset="1"
         stop-color="#2563EB"
         id="stop2" />
    </linearGradient>
    <linearGradient
       id="arrowGradient"
       x1="15"
       y1="4"
       x2="24"
       y2="13"
       gradientUnits="userSpaceOnUse">
      <stop
         offset="0"
         stop-color="#34D399"
         id="stop3" />
      <stop
         offset="1"
         stop-color="#16A34A"
         id="stop4" />
    </linearGradient>
    <linearGradient
       inkscape:collect="always"
       xlink:href="#linearGradient6"
       id="linearGradient5"
       gradientUnits="userSpaceOnUse"
       x1="15"
       y1="4"
       x2="24"
       y2="13"
       gradientTransform="rotate(180,14.289657,14.325876)" />
  </defs>
  <!-- Průhledné pozadí -->
  <!-- Kruhová šipka obnovit -->
  <path
     d="M14 4.8            C17.2 4.8 20.05 6.42 21.75 8.88            V6.75            C21.75 6.1 22.3 5.55 22.95 5.55            C23.6 5.55 24.15 6.1 24.15 6.75            V12.05            C24.15 12.7 23.6 13.25 22.95 13.25            H17.65            C17 13.25 16.45 12.7 16.45 12.05            C16.45 11.4 17 10.85 17.65 10.85            H20.05            C18.85 8.65 16.55 7.2 14 7.2            C10.08 7.2 6.9 10.38 6.9 14.3            C6.9 14.95 6.35 15.5 5.7 15.5            C5.05 15.5 4.5 14.95 4.5 14.3            C4.5 9.05 8.75 4.8 14 4.8Z"
     fill="url(#arrowGradient)"
     id="path5" />
  <path
     d="m 14.579313,23.851751 c -3.2,0 -6.0500001,-1.62 -7.7500001,-4.08 v 2.13 c 0,0.65 -0.55,1.2 -1.2,1.2 -0.65,0 -1.2,-0.55 -1.2,-1.2 v -5.3 c 0,-0.65 0.55,-1.2 1.2,-1.2 h 5.3000001 c 0.65,0 1.2,0.55 1.2,1.2 0,0.65 -0.55,1.2 -1.2,1.2 H 8.5293129 c 1.2000001,2.2 3.5000001,3.65 6.0500001,3.65 3.92,0 7.1,-3.18 7.1,-7.1 0,-0.65 0.55,-1.2 1.2,-1.2 0.65,0 1.2,0.55 1.2,1.2 0,5.25 -4.25,9.5 -9.5,9.5 z"
     fill="url(#arrowGradient)"
     id="path5-1"
     style="fill:url(#linearGradient5)" />
</svg>
