<?xml version="1.0" encoding="utf-8"?>
<svg
    xmlns="http://www.w3.org/2000/svg"
    width="28"
    height="28"
    viewBox="0 0 28 28">
    <defs>
        <linearGradient id="rowGradient" x1="4" y1="6" x2="24" y2="22" gradientUnits="userSpaceOnUse">
            <stop offset="0" stop-color="#60A5FA"/>
            <stop offset="1" stop-color="#2563EB"/>
        </linearGradient>

        <linearGradient id="arrowGradient" x1="14" y1="8" x2="14" y2="22" gradientUnits="userSpaceOnUse">
            <stop offset="0" stop-color="#22C55E"/>
            <stop offset="1" stop-color="#16A34A"/>
        </linearGradient>
    </defs>

    <!-- Průhledné pozadí -->

    <!-- Horní řádek -->
    <rect
        x="5"
        y="5"
        width="18"
        height="4"
        rx="2"
        fill="url(#rowGradient)"
        opacity="0.95"/>

    <!-- Dolní řádek -->
    <rect
        x="5"
        y="19"
        width="18"
        height="4"
        rx="2"
        fill="url(#rowGradient)"
        opacity="0.95"/>

    <!-- Šipka dolů pro posun řádku -->
    <path
        d="M14 8.2
           C14.66 8.2 15.2 8.74 15.2 9.4
           V15.85
           L17.95 13.1
           C18.42 12.63 19.18 12.63 19.65 13.1
           C20.12 13.57 20.12 14.33 19.65 14.8
           L14.85 19.6
           C14.38 20.07 13.62 20.07 13.15 19.6
           L8.35 14.8
           C7.88 14.33 7.88 13.57 8.35 13.1
           C8.82 12.63 9.58 12.63 10.05 13.1
           L12.8 15.85
           V9.4
           C12.8 8.74 13.34 8.2 14 8.2Z"
        fill="url(#arrowGradient)"/>
</svg>
