<?xml version="1.0" encoding="utf-8"?>
<svg
    xmlns="http://www.w3.org/2000/svg"
    width="28"
    height="28"
    viewBox="0 0 28 28">
    <defs>
        <linearGradient id="backGradient" x1="4" y1="14" x2="24" y2="14" gradientUnits="userSpaceOnUse">
            <stop offset="0" stop-color="#3B82F6"/>
            <stop offset="1" stop-color="#2563EB"/>
        </linearGradient>
    </defs>

    <!-- Průhledné pozadí -->

    <!-- Šipka zpět ve stylu Fluent, vycentrovaná do plátna 28×28 -->
    <path
        d="M13.35 6.15
           C13.82 6.62 13.82 7.38 13.35 7.85
           L8.40 12.80
           H22.00
           C22.66 12.80 23.20 13.34 23.20 14.00
           C23.20 14.66 22.66 15.20 22.00 15.20
           H8.40
           L13.35 20.15
           C13.82 20.62 13.82 21.38 13.35 21.85
           C12.88 22.32 12.12 22.32 11.65 21.85
           L4.65 14.85
           C4.18 14.38 4.18 13.62 4.65 13.15
           L11.65 6.15
           C12.12 5.68 12.88 5.68 13.35 6.15Z"
        fill="url(#backGradient)"/>
</svg>
