<svg width="28" height="28" viewBox="0 0 28 28" fill="none" xmlns="http://www.w3.org/2000/svg">
  <defs>
    <linearGradient id="bowl" x1="5" y1="10" x2="23" y2="24" gradientUnits="userSpaceOnUse">
      <stop stop-color="#8B5CF6"/>
      <stop offset="1" stop-color="#4F46E5"/>
    </linearGradient>
    <linearGradient id="mass" x1="7" y1="9" x2="21" y2="15" gradientUnits="userSpaceOnUse">
      <stop stop-color="#FDE68A"/>
      <stop offset="1" stop-color="#F59E0B"/>
    </linearGradient>
    <linearGradient id="recipe" x1="15" y1="2" x2="24" y2="12" gradientUnits="userSpaceOnUse">
      <stop stop-color="#60A5FA"/>
      <stop offset="1" stop-color="#2563EB"/>
    </linearGradient>
    <linearGradient id="shadow" x1="8" y1="23" x2="20" y2="26" gradientUnits="userSpaceOnUse">
      <stop stop-color="#000000" stop-opacity="0.22"/>
      <stop offset="1" stop-color="#000000" stop-opacity="0"/>
    </linearGradient>
  </defs>

  <!-- Jemný stín pod ikonou -->
  <ellipse cx="14" cy="24.2" rx="8.5" ry="1.8" fill="url(#shadow)"/>

  <!-- Receptura / návaznost na recept -->
  <path d="M16.2 3.2C16.2 2.54 16.74 2 17.4 2H22.1L25 4.9V11.2C25 11.86 24.46 12.4 23.8 12.4H17.4C16.74 12.4 16.2 11.86 16.2 11.2V3.2Z" fill="url(#recipe)"/>
  <path d="M22.1 2V4.15C22.1 4.57 22.43 4.9 22.85 4.9H25L22.1 2Z" fill="#BFDBFE" fill-opacity="0.9"/>
  <path d="M18.2 6.6H23" stroke="white" stroke-width="1.05" stroke-linecap="round" opacity="0.9"/>
  <path d="M18.2 8.7H21.8" stroke="white" stroke-width="1.05" stroke-linecap="round" opacity="0.75"/>

  <!-- Propojovací linka: základová hmota vstupuje do receptury -->
  <path d="M14 10.9V8.7C14 7.7 14.8 6.9 15.8 6.9H16.2" stroke="#6366F1" stroke-width="1.7" stroke-linecap="round"/>

  <!-- Hmota v nádobě -->
  <path d="M6.7 12.7C7.25 10.85 10.15 9.45 13.7 9.45C17.25 9.45 20.15 10.85 20.7 12.7C19.55 13.9 17.05 14.75 13.7 14.75C10.35 14.75 7.85 13.9 6.7 12.7Z" fill="url(#mass)"/>
  <path d="M8.2 12.2C9.15 11.25 11.25 10.65 13.7 10.65C16.15 10.65 18.25 11.25 19.2 12.2" stroke="#FFF7CC" stroke-width="1" stroke-linecap="round" opacity="0.9"/>

  <!-- Nádoba / základová hmota -->
  <path d="M5.2 12.6C5.2 11.95 5.75 11.45 6.4 11.52C8.55 11.77 10.75 11.9 14 11.9C17.25 11.9 19.45 11.77 21.6 11.52C22.25 11.45 22.8 11.95 22.8 12.6C22.8 18.85 19.25 23.3 14 23.3C8.75 23.3 5.2 18.85 5.2 12.6Z" fill="url(#bowl)"/>
  <path d="M5.45 13.05C6.9 14.7 10.05 15.7 14 15.7C17.95 15.7 21.1 14.7 22.55 13.05" stroke="#C4B5FD" stroke-width="1.35" stroke-linecap="round" opacity="0.95"/>
  <path d="M8.2 17.2C8.95 19.95 11.05 21.55 14 21.55" stroke="#EDE9FE" stroke-width="1.25" stroke-linecap="round" opacity="0.55"/>

  <!-- Malý znak BASE bez textu: vrstvy/polotovar -->
  <rect x="10.1" y="16.95" width="7.8" height="1.35" rx="0.675" fill="#EDE9FE" opacity="0.95"/>
  <rect x="11.35" y="19.05" width="5.3" height="1.2" rx="0.6" fill="#DDD6FE" opacity="0.85"/>
</svg>
