<?xml version="1.0" encoding="utf-8"?>
<svg
    xmlns="http://www.w3.org/2000/svg"
    width="28"
    height="28"
    viewBox="0 0 28 28">
    <defs>
        <linearGradient id="rowGradient" x1="4" y1="6" x2="24" y2="22" gradientUnits="userSpaceOnUse">
            <stop offset="0" stop-color="#60A5FA"/>
            <stop offset="1" stop-color="#2563EB"/>
        </linearGradient>

        <linearGradient id="arrowGradient" x1="14" y1="20" x2="14" y2="6" gradientUnits="userSpaceOnUse">
            <stop offset="0" stop-color="#22C55E"/>
            <stop offset="1" stop-color="#16A34A"/>
        </linearGradient>
    </defs>

    <!-- Průhledné pozadí -->

    <!-- Horní řádek -->
    <rect
        x="5"
        y="5"
        width="18"
        height="4"
        rx="2"
        fill="url(#rowGradient)"
        opacity="0.95"/>

    <!-- Dolní řádek -->
    <rect
        x="5"
        y="19"
        width="18"
        height="4"
        rx="2"
        fill="url(#rowGradient)"
        opacity="0.95"/>

    <!-- Šipka nahoru pro posun řádku -->
    <path
        d="M14 19.8
           C13.34 19.8 12.8 19.26 12.8 18.6
           V12.15
           L10.05 14.9
           C9.58 15.37 8.82 15.37 8.35 14.9
           C7.88 14.43 7.88 13.67 8.35 13.2
           L13.15 8.4
           C13.62 7.93 14.38 7.93 14.85 8.4
           L19.65 13.2
           C20.12 13.67 20.12 14.43 19.65 14.9
           C19.18 15.37 18.42 15.37 17.95 14.9
           L15.2 12.15
           V18.6
           C15.2 19.26 14.66 19.8 14 19.8Z"
        fill="url(#arrowGradient)"/>
</svg>
