<?xml version="1.0" encoding="UTF-8" standalone="no"?>
<svg width="28" height="28" viewBox="0 0 28 28" version="1.1" xmlns="http://www.w3.org/2000/svg">
  <defs>
    <linearGradient id="documentGradient" x1="6" y1="4" x2="22" y2="24" gradientUnits="userSpaceOnUse">
      <stop offset="0" stop-color="#93C5FD"/>
      <stop offset="1" stop-color="#2563EB"/>
    </linearGradient>
    <linearGradient id="clipGradient" x1="9" y1="3" x2="19" y2="9" gradientUnits="userSpaceOnUse">
      <stop offset="0" stop-color="#FDBA74"/>
      <stop offset="1" stop-color="#F97316"/>
    </linearGradient>
    <linearGradient id="activeGradient" x1="16" y1="15" x2="26" y2="25" gradientUnits="userSpaceOnUse">
      <stop offset="0" stop-color="#86EFAC"/>
      <stop offset="1" stop-color="#16A34A"/>
    </linearGradient>
    <filter id="softShadow" x="-20%" y="-20%" width="140%" height="140%">
      <feDropShadow dx="0" dy="1" stdDeviation="0.8" flood-color="#000000" flood-opacity="0.25"/>
    </filter>
  </defs>

  <!-- Výrobní zakázka / pracovní list -->
  <rect x="6" y="5" width="16" height="19" rx="3" fill="url(#documentGradient)"/>

  <!-- Horní klip -->
  <path d="M11 4.2 H17 C17.85 4.2 18.5 4.85 18.5 5.7 V7.7 H9.5 V5.7 C9.5 4.85 10.15 4.2 11 4.2Z" fill="url(#clipGradient)"/>
  <rect x="12" y="3" width="4" height="2.4" rx="1.2" fill="#FED7AA"/>

  <!-- Řádky zakázky -->
  <rect x="9" y="10" width="10" height="1.3" rx="0.65" fill="#DBEAFE"/>
  <rect x="9" y="13" width="8" height="1.3" rx="0.65" fill="#DBEAFE"/>
  <rect x="9" y="16" width="6" height="1.3" rx="0.65" fill="#DBEAFE"/>

  <!-- Aktivní stav: zelený odznak s ikonou spuštění -->
  <circle cx="20.5" cy="20.5" r="6.6" fill="#FFFFFF" filter="url(#softShadow)"/>
  <circle cx="20.5" cy="20.5" r="5.6" fill="url(#activeGradient)"/>
  <path d="M18.9 17.45 C18.9 17.05 19.34 16.81 19.68 17.03 L23.12 20.03 C23.43 20.23 23.43 20.77 23.12 20.97 L19.68 23.97 C19.34 24.19 18.9 23.95 18.9 23.55 Z" fill="#FFFFFF"/>
</svg>
